<?xml version="1.0" encoding="UTF-8"?><svg id="uuid-e00e005b-00c9-4931-bcc9-ddba6eafebc4" xmlns="http://www.w3.org/2000/svg" viewBox="0 0 48 48"><path d="M36,32.16c-1.52,0-2.88,.6-3.92,1.54l-14.26-8.3c.1-.46,.18-.92,.18-1.4s-.08-.94-.18-1.4l14.1-8.22c1.08,1,2.5,1.62,4.08,1.62,3.32,0,6-2.68,6-6s-2.68-6-6-6-6,2.68-6,6c0,.48,.08,.94,.18,1.4l-14.1,8.22c-1.08-1-2.5-1.62-4.08-1.62-3.32,0-6,2.68-6,6s2.68,6,6,6c1.58,0,3-.62,4.08-1.62l14.24,8.32c-.1,.42-.16,.86-.16,1.3,0,3.22,2.62,5.84,5.84,5.84s5.84-2.62,5.84-5.84-2.62-5.84-5.84-5.84Z"/></svg>