<?xml version="1.0" encoding="UTF-8"?><svg id="uuid-a8730443-dcf4-49c9-b408-322aaaa33098" xmlns="http://www.w3.org/2000/svg" viewBox="0 0 48 48"><path d="M24,12.53075L14.63559,3.47482c-1.10221-1.06652-2.73565-1.36976-4.14895-.77255-1.41195,.59983-2.32954,1.98546-2.32954,3.52009V29.34146c0,1.55303,.63021,3.04016,1.74684,4.12127l11.43821,11.06249c1.4819,1.43305,3.83389,1.43305,5.31435,0l11.43956-11.06249c1.11664-1.08111,1.74684-2.56824,1.74684-4.12127V6.22236c0-1.53464-.91759-2.92018-2.32954-3.52009-1.4133-.59722-3.04674-.29397-4.14895,.77255l-9.36441,9.05593Zm10.44949,16.14489c0,.51815-.20959,1.01386-.5827,1.37373l-9.86679,9.5438V20.03501l1.87476-1.81409,6.95581-6.72639c.27422-.26629,.68421-.34282,1.03623-.19246,.35337,.14901,.5827,.49571,.5827,.87937V28.67564Z"/></svg>