<?xml version="1.0" encoding="UTF-8"?><svg id="uuid-80002e8d-1fe3-4e99-986a-64fbdf9ccf0a" xmlns="http://www.w3.org/2000/svg" viewBox="0 0 48 48"><path d="M33,6c-3.48,0-6.82,1.62-9,4.18-2.18-2.56-5.52-4.18-9-4.18-6.16,0-11,4.84-11,11,0,7.56,6.8,13.72,17.1,23.08l2.9,2.62,2.9-2.64c10.3-9.34,17.1-15.5,17.1-23.06,0-6.16-4.84-11-11-11Zm-8.8,31.1l-.2,.2-.2-.2c-9.52-8.62-15.8-14.32-15.8-20.1,0-4,3-7,7-7,3.08,0,6.08,1.98,7.14,4.72h3.74c1.04-2.74,4.04-4.72,7.12-4.72,4,0,7,3,7,7,0,5.78-6.28,11.48-15.8,20.1Z"/></svg>