<?xml version="1.0" encoding="UTF-8"?><svg id="uuid-b63d417c-d1e1-43e2-b2c9-9bd9409b7501" xmlns="http://www.w3.org/2000/svg" viewBox="0 0 48 48"><path d="M38.28,25.88c.08-.6,.12-1.22,.12-1.88,0-.64-.04-1.28-.14-1.88l4.06-3.16c.36-.28,.46-.82,.24-1.22l-3.84-6.64c-.24-.44-.74-.58-1.18-.44l-4.78,1.92c-1-.76-2.06-1.4-3.24-1.88l-.72-5.08c-.08-.48-.48-.82-.96-.82h-7.68c-.48,0-.86,.34-.94,.82l-.72,5.08c-1.18,.48-2.26,1.14-3.24,1.88l-4.78-1.92c-.44-.16-.94,0-1.18,.44l-3.82,6.64c-.24,.42-.16,.94,.24,1.22l4.06,3.16c-.1,.6-.18,1.26-.18,1.88s.04,1.28,.14,1.88l-4.06,3.16c-.36,.28-.46,.82-.24,1.22l3.84,6.64c.24,.44,.74,.58,1.18,.44l4.78-1.92c1,.76,2.06,1.4,3.24,1.88l.72,5.08c.1,.48,.48,.82,.96,.82h7.68c.48,0,.88-.34,.94-.82l.72-5.08c1.18-.48,2.26-1.12,3.24-1.88l4.78,1.92c.44,.16,.94,0,1.18-.44l3.84-6.64c.24-.44,.14-.94-.24-1.22l-4.02-3.16Zm-14.28,5.32c-3.96,0-7.2-3.24-7.2-7.2s3.24-7.2,7.2-7.2,7.2,3.24,7.2,7.2-3.24,7.2-7.2,7.2Z"/></svg>