<?xml version="1.0" encoding="UTF-8"?><svg id="uuid-bece8602-bc6c-4370-9d85-566c3bdb7682" xmlns="http://www.w3.org/2000/svg" viewBox="0 0 48 48"><path d="M37.2,9.6h-3.6V4.8h-3.6v4.8h-12V4.8h-3.6v4.8h-3.6c-1.992,0-3.6,1.632-3.6,3.6v26.4c0,1.968,1.608,3.6,3.6,3.6h26.4c1.992,0,3.6-1.632,3.6-3.6V13.2c0-1.968-1.608-3.6-3.6-3.6Zm0,30H10.8V21.6h26.4v18Zm0-21.6H10.8v-4.8h26.4v4.8Zm-19.2,10.8h-3.6v-3.6h3.6v3.6Zm7.8,0h-3.6v-3.6h3.6v3.6Zm7.8,0h-3.6v-3.6h3.6v3.6Zm-15.6,7.2h-3.6v-3.6h3.6v3.6Zm7.8,0h-3.6v-3.6h3.6v3.6Zm7.8,0h-3.6v-3.6h3.6v3.6Z"/></svg>