<?xml version="1.0" encoding="UTF-8"?><svg id="uuid-d2cacc18-a9f5-4ed8-ba35-79f71dddc6d3" xmlns="http://www.w3.org/2000/svg" viewBox="0 0 48 48"><path d="M40,31c-2.5,0-4.9-.4-7.14-1.14-.7-.22-1.48-.06-2.04,.48l-4.4,4.4c-5.66-2.88-10.3-7.5-13.18-13.18l4.4-4.42c.56-.52,.72-1.3,.5-2-.74-2.24-1.14-4.64-1.14-7.14,0-1.1-.9-2-2-2h-7c-1.1,0-2,.9-2,2,0,18.78,15.22,34,34,34,1.1,0,2-.9,2-2v-7c0-1.1-.9-2-2-2Zm-2-7h4c0-9.94-8.06-18-18-18v4c7.74,0,14,6.26,14,14Zm-8,0h4c0-5.52-4.48-10-10-10v4c3.32,0,6,2.68,6,6Z"/></svg>