<?xml version="1.0" encoding="UTF-8"?><svg id="uuid-cad5e348-5982-4da7-9619-bf28074d2b91" xmlns="http://www.w3.org/2000/svg" viewBox="0 0 48 48"><path d="M42,10c-2.22-.7-4.66-1-7-1-3.9,0-8.1,.8-11,3-2.9-2.2-7.1-3-11-3s-8.1,.8-11,3v29.3c0,.5,.5,1,1,1,.2,0,.3-.1,.5-.1,2.7-1.3,6.6-2.2,9.5-2.2,3.9,0,8.1,.8,11,3,2.7-1.7,7.6-3,11-3,3.3,0,6.7,.6,9.5,2.1,.2,.1,.3,.1,.5,.1,.5,0,1-.5,1-1V12c-1.2-.9-2.5-1.5-4-2Zm0,27c-2.2-.7-4.6-1-7-1-3.4,0-8.3,1.3-11,3V16c2.7-1.7,7.6-3,11-3,2.4,0,4.8,.3,7,1v23Z"/><g><path d="M35,21c1.76,0,3.46,.18,5,.52v-3.04c-1.58-.3-3.28-.48-5-.48-3.4,0-6.48,.58-9,1.66v3.32c2.26-1.28,5.4-1.98,9-1.98Z"/><path d="M26,24.98v3.32c2.26-1.28,5.4-1.98,9-1.98,1.76,0,3.46,.18,5,.52v-3.04c-1.58-.3-3.28-.48-5-.48-3.4,0-6.48,.6-9,1.66Z"/><path d="M35,28.66c-3.4,0-6.48,.58-9,1.66v3.32c2.26-1.28,5.4-1.98,9-1.98,1.76,0,3.46,.18,5,.52v-3.04c-1.58-.32-3.28-.48-5-.48Z"/></g></svg>