<?xml version="1.0" encoding="UTF-8"?><svg id="uuid-76947a39-c9f8-449f-bcf6-90ffa2940ac5" xmlns="http://www.w3.org/2000/svg" viewBox="0 0 48 48"><path d="M14,36c-2.2,0-3.98,1.8-3.98,4s1.78,4,3.98,4,4-1.8,4-4-1.8-4-4-4ZM2,4v4H6l7.2,15.18-2.7,4.9c-.32,.56-.5,1.22-.5,1.92,0,2.2,1.8,4,4,4h24v-4H14.84c-.28,0-.5-.22-.5-.5l.06-.24,1.8-3.26h14.9c1.5,0,2.82-.82,3.5-2.06l7.16-12.98c.16-.28,.24-.62,.24-.96,0-1.1-.9-2-2-2H10.42l-1.88-4H2Zm32,32c-2.2,0-3.98,1.8-3.98,4s1.78,4,3.98,4,4-1.8,4-4-1.8-4-4-4Z"/></svg>