<?xml version="1.0" encoding="UTF-8"?><svg id="uuid-3c7e7cfe-a2fb-4ad7-adec-7f309d2bdb2b" xmlns="http://www.w3.org/2000/svg" viewBox="0 0 48 48"><path d="M4.8,14.4C7.272,7.464,14.928,2.4,24,2.4c7.032,0,13.224,3.048,16.8,7.656V4.8h2.4V14.4h-9.6v-2.4h5.664c-3.12-4.368-8.904-7.2-15.264-7.2-7.464,0-14.136,3.912-16.632,9.6h-2.568Zm25.584,12h-3.984V15c0-1.656-1.344-3-3-3h0c-1.656,0-3,1.344-3,3v21l-5.088-1.704c-1.296-.432-2.712-.096-3.696,.864l-.816,.84,8.544,8.544c.672,.672,1.584,1.056,2.544,1.056h12.648c1.752,0,3.264-1.272,3.552-3l1.464-8.76c.264-1.56-.528-3.096-1.944-3.816l-7.224-3.624Z"/></svg>