<svg xmlns="http://www.w3.org/2000/svg" width="64" height="64" viewBox="0 0 64 64"><g id="object"><path d="M32,19.0957A12.764,12.764,0,1,0,44.764,31.86,12.7784,12.7784,0,0,0,32,19.0957Zm0,20.9612A8.1972,8.1972,0,1,1,40.1972,31.86,8.2065,8.2065,0,0,1,32,40.0569Z"/><circle cx="45.2447" cy="18.7843" r="2.8981" transform="translate(-3.6903 21.0871) rotate(-25.2411)"/><path d="M52.8066,11.2541A14.3988,14.3988,0,0,0,42.3017,7.1933H21.6984c-8.6759,0-14.5051,5.8292-14.5051,14.5051V42.1875A14.4616,14.4616,0,0,0,11.37,52.8708a14.62,14.62,0,0,0,10.4429,3.9359H42.1875A14.6841,14.6841,0,0,0,52.7183,52.88a14.3624,14.3624,0,0,0,4.0884-10.5788V21.6984A14.4385,14.4385,0,0,0,52.8066,11.2541ZM52.24,42.3016a9.9205,9.9205,0,0,1-2.7122,7.3115,10.234,10.234,0,0,1-7.34,2.6268H21.8126a10.158,10.158,0,0,1-7.2621-2.6459,10.0155,10.0155,0,0,1-2.79-7.4065V21.6984a9.9932,9.9932,0,0,1,2.6743-7.29,10.0193,10.0193,0,0,1,7.264-2.6485H42.3017a9.9455,9.9455,0,0,1,7.2635,2.711A9.9811,9.9811,0,0,1,52.24,21.6984Z"/></g></svg>