<?xml version="1.0" encoding="utf-8"?>
<!-- Generator: Adobe Illustrator 25.2.1, SVG Export Plug-In . SVG Version: 6.00 Build 0)  -->
<svg version="1.1" id="レイヤー_1" xmlns="http://www.w3.org/2000/svg" xmlns:xlink="http://www.w3.org/1999/xlink" x="0px"
	 y="0px" viewBox="0 0 64 64" style="enable-background:new 0 0 64 64;" xml:space="preserve">
<style type="text/css">
	.st0{fill:#132228;}
</style>
<g>
	<path class="st0" d="M29.9,23.4c-1.6,0-2.9,1.2-2.9,2.9c0,1.5,1.3,2.9,2.9,2.9s2.9-1.3,2.9-2.9C32.8,24.6,31.6,23.4,29.9,23.4z"/>
	<path class="st0" d="M39.4,23.4c-1.2,0-2.3,0.9-2.5,2.1H42C41.7,24.2,40.7,23.4,39.4,23.4z"/>
	<path class="st0" d="M28.4,37.9c-1.4,0-2.5,1.1-2.5,2.5c0,1.4,1.2,2.5,2.5,2.5c1.4,0,2.5-1.1,2.5-2.5C31,39.2,29.8,37.9,28.4,37.9z
		"/>
	<path class="st0" d="M48.2,5.4H15.8C10,5.4,5.4,10.1,5.4,15.8v32.2c0,5.8,4.7,10.5,10.5,10.5h32.2c5.8,0,10.4-4.7,10.4-10.5V15.8
		C58.6,10.1,53.9,5.4,48.2,5.4z M44.5,22.1h1.6v1.1c0.4-0.7,1.1-1.1,2-1.1h0.5v1.5h-0.7c-1.1,0-1.9,0.8-1.9,2.1v4.7h-1.6V22.1z
		 M39.5,22c2.4,0,4.2,1.9,4.2,4.3v0.5h-6.8c0.2,1.3,1.3,2.3,2.8,2.3c1,0,1.8-0.4,2.4-1.2l1.2,0.9c-0.9,1.1-2.1,1.8-3.6,1.8
		c-2.5,0-4.5-1.9-4.5-4.3C35.1,24,37,22,39.5,22z M15,19h1.8V26c0,1.9,1.2,3,2.9,3s2.9-1.2,2.9-3V19h1.8v11.3h-1.8v-1.1
		c-0.8,0.8-1.9,1.2-3.1,1.2c-2.4,0-4.4-1.8-4.4-4.4C15,26.1,15,19,15,19z M23.1,35.3h-5.9v2.8h5.7v1.9h-5.7v2.9h5.9v2H15V33.4h8.1
		V35.3z M33.1,44.8h-2.2V44c-0.8,0.7-1.6,1-2.8,1c-2.5,0-4.5-2-4.5-4.4s2-4.4,4.5-4.4c1,0,2,0.3,2.8,1v-0.8h2.2V44.8z M30,30.6
		c-1.2,0-2.2-0.4-3-1.2v1h-1.6V19h1.6v4.2c0.8-0.8,1.8-1.2,3-1.2c2.4,0,4.4,1.9,4.4,4.3S32.6,30.6,30,30.6z M40.3,38.3h-2.4v4
		c0,0.4,0.3,0.7,0.8,0.7h1.6v1.9h-2.3c-1.4,0-2.3-0.9-2.3-2v-4.4H34v-2h1.7V34h2.2v2.4h2.4C40.3,36.4,40.3,38.3,40.3,38.3z M45.1,45
		c-2.6,0-4-1.2-4.3-2.9H43c0.3,0.9,1,1.2,2.2,1.2c1,0,1.7-0.3,1.7-0.9c0-0.3-0.2-0.6-1-0.7l-2.1-0.4c-1.9-0.4-2.8-1.2-2.8-2.4
		c0-1.8,1.5-2.6,3.9-2.6c2.6,0,3.8,1.2,4,2.9h-2.2c-0.2-0.9-1-1.2-2-1.2c-1,0-1.4,0.3-1.4,0.8c0,0.4,0.3,0.5,1.4,0.8l1.9,0.3
		c1.8,0.3,2.5,1.2,2.5,2.3C49.1,43.8,47.6,45,45.1,45z"/>
</g>
</svg>
