<svg xmlns="http://www.w3.org/2000/svg" width="64" height="64" viewBox="0 0 64 64"><g id="object"><path d="M15.6874,17.0734h4.5762a.4742.4742,0,0,0,.4733-.4735c0-.0016-.0555-3.9212-.0555-5.0112v-.0129a5.1609,5.1609,0,0,1,.5152-2.33l.1564-.2938a.0953.0953,0,0,0-.0524.029l-8.8859,8.8116a.1.1,0,0,0-.0333.0519c.1838-.0909.4351-.2153.4706-.2308A6.8413,6.8413,0,0,1,15.6874,17.0734Z"/><path d="M51.273,16.1139a4.0549,4.0549,0,0,0-2.5648-3.28A33.9338,33.9338,0,0,0,42.42,11.6656a48.8039,48.8039,0,0,0-6.67-.2,3.9608,3.9608,0,0,0-2.2021-3.0083A17.0952,17.0952,0,0,0,25.25,7.91a4.44,4.44,0,0,0-2.4214,1.5428,3.584,3.584,0,0,0-.6069,2.1343c0,.5312.0147,1.7822.0283,2.8938.0134,1.115.0281,2.1123.0281,2.119a1.8038,1.8038,0,0,1-1.8022,1.8019h-4.574a5.5012,5.5012,0,0,0-2.29.4228,3.1877,3.1877,0,0,0-1.2812,1.021,4.6139,4.6139,0,0,0-.7144,2.8649,24.62,24.62,0,0,0,.2122,2.4775c.1691,1.264,1.54,10.0936,2.8418,12.7789a3.2836,3.2836,0,0,0,1.8327,1.9405,49.3206,49.3206,0,0,0,9.6223,2.3c2.3612.3021,3.8432.9372,4.7264-.9146.003-.0046.177-.4608.4162-1.13a18.3616,18.3616,0,0,0,.8735-5.877.1114.1114,0,1,1,.2226,0c0,1.0532-.2011,4.7805,2.6144,5.78a33.5774,33.5774,0,0,0,5.76,1.02c2.1184.2434,3.6558,1.0771,3.6558,6.5119,0,3.3067-.6945,3.76-4.3253,3.76-2.9432,0-4.0648.0762-4.0648-2.262,0-1.89,1.869-1.6917,3.2543-1.6917.6187,0,.17-.46.17-1.6261,0-1.16.7253-1.83.0393-1.8472-4.79-.1319-7.6084-.0056-7.6084,5.985,0,5.4384,2.0812,6.4482,8.8795,6.4482,5.33,0,7.2092-.1746,9.41-7.0035a63.1891,63.1891,0,0,0,2.1263-12.37C52.677,32.6237,51.894,19.4411,51.273,16.1139ZM41.9813,30.6848a9.7531,9.7531,0,0,0-1.8825.1135c.1662-1.3425.72-2.99,2.6832-2.9208,2.173.0747,2.4774,2.1285,2.4852,3.52A8.9342,8.9342,0,0,0,41.9813,30.6848Z"/></g></svg>