<svg xmlns="http://www.w3.org/2000/svg" width="64" height="64" viewBox="0 0 64 64"><g id="object"><path d="M55.15,37.29A23.4458,23.4458,0,0,0,28.2544,9.1762,13.585,13.585,0,0,0,9.3062,27.5508,23.45,23.45,0,0,0,36.55,55.2993,13.5907,13.5907,0,0,0,55.15,37.29Zm-10.872,6.1684A10.6731,10.6731,0,0,1,39.517,47.07a19.0882,19.0882,0,0,1-7.32,1.2876,17.8675,17.8675,0,0,1-8.3886-1.7607A10.95,10.95,0,0,1,19.95,43.1738a7.4659,7.4659,0,0,1-1.498-4.2334,2.9377,2.9377,0,0,1,.9756-2.21,3.4368,3.4368,0,0,1,2.4463-.9106,3.111,3.111,0,0,1,2.0644.7158,5.3723,5.3723,0,0,1,1.3731,2.0093,11.7093,11.7093,0,0,0,1.3447,2.3837,5.19,5.19,0,0,0,1.9658,1.521,8.0707,8.0707,0,0,0,3.4023.607,8.2477,8.2477,0,0,0,4.72-1.23,3.4331,3.4331,0,0,0,1.7334-2.9233,2.8856,2.8856,0,0,0-.9033-2.2222,6.4662,6.4662,0,0,0-2.501-1.3794c-1.0645-.3306-2.5108-.6909-4.2978-1.0664a34.295,34.295,0,0,1-6.1406-1.8345,10.1291,10.1291,0,0,1-4.0254-2.9457,7.3244,7.3244,0,0,1-1.5156-4.6963,7.6062,7.6062,0,0,1,1.5908-4.74,9.873,9.873,0,0,1,4.5479-3.1567,19.8833,19.8833,0,0,1,6.8749-1.0845,18.6665,18.6665,0,0,1,5.4668.7192,12.0774,12.0774,0,0,1,3.8691,1.9292,8.3951,8.3951,0,0,1,2.2794,2.5606,5.6528,5.6528,0,0,1,.7313,2.6713,3.3565,3.3565,0,0,1-3.3671,3.2675,2.9767,2.9767,0,0,1-2.0176-.6268A7.6309,7.6309,0,0,1,37.67,24.4341a7.7523,7.7523,0,0,0-2.1025-2.6011,6.5906,6.5906,0,0,0-3.913-.9023,7.3242,7.3242,0,0,0-4.0586,1.0029,2.6759,2.6759,0,0,0-1.4531,2.2446,2.0578,2.0578,0,0,0,.47,1.3633,4.2029,4.2029,0,0,0,1.3955,1.062,10.2914,10.2914,0,0,0,1.8858.73c.65.1822,1.7431.4487,3.2411.795,1.8965.4082,3.64.8632,5.18,1.3569a16.6607,16.6607,0,0,1,4.0088,1.831,7.96,7.96,0,0,1,2.6406,2.788,8.3381,8.3381,0,0,1,.9531,4.127A8.8834,8.8834,0,0,1,44.2778,43.4584Z"/></g></svg>