<?xml version="1.0" encoding="utf-8"?>
<!-- Generator: Adobe Illustrator 25.2.1, SVG Export Plug-In . SVG Version: 6.00 Build 0)  -->
<svg version="1.1" id="レイヤー_1" xmlns="http://www.w3.org/2000/svg" xmlns:xlink="http://www.w3.org/1999/xlink" x="0px"
	 y="0px" viewBox="0 0 64 64" style="enable-background:new 0 0 64 64;" xml:space="preserve">
<style type="text/css">
	.st0{fill:#132228;}
</style>
<g>
	<g>
		<path class="st0" d="M30.4,45.8c0-2.3-1.9-4.1-4.2-4.1S22,43.4,22,45.8c0,2.3,1.9,4.1,4.2,4.1S30.4,48.1,30.4,45.8 M33.8,39v13.4
			h-3.4v-1.2c-1.2,1-2.8,1.5-4.4,1.5c-4.1,0-7.3-3.2-7.3-7c0-4,3.2-7,7.3-7c1.7,0,3.2,0.5,4.4,1.5V39C30.3,39,33.8,39,33.8,39z
			 M45.2,49.4h-2.6c-0.8,0-1.3-0.3-1.3-1.1V42h4v-3.1h-3.9V35h-3.5v3.9h-2.6V42h2.6v7.2c0,1.8,1.3,3.2,3.6,3.2h3.7V49.4z M53.1,52.8
			c4,0,6.3-1.9,6.3-4.4c0-1.9-1.3-3.2-4.1-3.9l-3-0.5c-1.8-0.3-2.2-0.7-2.2-1.2c0-0.8,0.8-1.3,2.3-1.3c1.6,0,2.9,0.4,3.2,2H59
			c-0.2-2.8-2.2-4.6-6.5-4.6c-3.6,0-6.2,1.4-6.2,4.3c0,2,1.4,3.2,4.4,3.9l3.3,0.8c1.3,0.2,1.7,0.5,1.7,1.1c0,0.9-1,1.3-2.5,1.3
			c-2,0-3.2-0.4-3.6-2h-3.5C46.6,50.9,48.8,52.8,53.1,52.8 M4.6,34.2h13.1v3.1H8.2v4.4h9.2v3H8.2v4.5h9.5v3.1H4.6V34.2z"/>
		<path class="st0" d="M59.1,18.5V16h-0.9c-1.4,0-2.5,0.7-3.2,1.8v-1.6h-2.6v13.3H55v-7.6c0-2.1,1.3-3.4,3-3.4H59.1z M39.8,21.5
			c0.4-2,2.2-3.4,4.2-3.4s3.6,1.3,4.1,3.4H39.8z M44,15.8c-4,0-6.9,3.2-6.9,6.9c0,4,3.1,6.9,7.2,6.9c2.4,0,4.5-1.1,5.8-2.9l-2-1.4
			c-1,1.3-2.3,2-3.8,2c-2.3,0-4.1-1.6-4.5-3.7h11v-0.9C50.7,18.8,47.8,15.8,44,15.8 M28.7,27.4c-2.6,0-4.6-2.1-4.6-4.6
			s2.1-4.6,4.6-4.6s4.6,2,4.6,4.6S31.2,27.4,28.7,27.4 M21.4,29.4H24v-1.6c1.2,1.2,3,2,4.8,2c4,0,7.1-3.1,7.1-6.9S32.8,16,28.8,16
			c-1.9,0-3.6,0.8-4.8,2v-6.6h-2.6C21.4,11.2,21.4,29.4,21.4,29.4z M12,27.3c2.5,0,4.5-2,4.5-4.8V11.2h2.8v18.3h-2.6v-1.7
			c-1.2,1.3-3,2-5,2c-4,0-7-2.9-7-7.1V11.2h2.8v11.2C7.5,25.4,9.4,27.3,12,27.3"/>
	</g>
</g>
</svg>
