<?xml version="1.0" encoding="utf-8"?>
<!-- Generator: Adobe Illustrator 26.3.1, SVG Export Plug-In . SVG Version: 6.00 Build 0)  -->
<svg version="1.1" id="レイヤー_1" xmlns="http://www.w3.org/2000/svg" xmlns:xlink="http://www.w3.org/1999/xlink" x="0px"
	 y="0px" viewBox="0 0 64 64" style="enable-background:new 0 0 64 64;" xml:space="preserve">
<g id="symbol_mono">
	<path id="symbol-2" d="M53.6,7.5C48,9.4,37.7,16.3,32,33.6C26.3,16.3,16,9.4,10.4,7.5C9.8,7.3,9.2,7.6,8.9,8.1
		c-1.5,3.3-5.8,15.3,3.3,32.2C17.8,50.7,28,55.4,31.1,56.6c0.6,0.2,1.2,0.2,1.8,0c3.1-1.2,13.3-6,18.9-16.3
		c9.1-16.9,4.8-28.9,3.3-32.2C54.8,7.6,54.2,7.3,53.6,7.5L53.6,7.5z M29,49.1c-3.7-2.1-8.6-5.8-11.6-11.6c-3.7-7-5.4-13.7-4.8-19.9
		c0.1-0.8,0.2-1.5,0.3-2.2c1.1,0.7,2.2,1.7,3.5,2.9c4.4,4.2,7.7,10,10.1,17.2l0,0l0,0C28.7,42.4,29.1,46.7,29,49.1L29,49.1z
		 M46.6,37.5c-3.1,5.7-8,9.4-11.6,11.6c-0.1-2.4,0.3-6.7,2.6-13.6l0,0l0,0c2.3-7.2,5.7-13,10.1-17.2c1.2-1.2,2.4-2.1,3.5-2.9
		c0.1,0.7,0.2,1.4,0.3,2.2C52,23.8,50.3,30.6,46.6,37.5L46.6,37.5z"/>
</g>
</svg>
