<svg xmlns="http://www.w3.org/2000/svg" width="64" height="64" viewBox="0 0 64 64"><g id="object"><path d="M33.8652,29.565v-.0776c-.0156.0258-.0336.0517-.05.0776Z"/><path d="M53.0591,7.13H10.939a3.6088,3.6088,0,0,0-3.6514,3.5635V53.3062A3.61,3.61,0,0,0,10.939,56.87h42.12a3.61,3.61,0,0,0,3.6533-3.5634V10.6939A3.6091,3.6091,0,0,0,53.0591,7.13Zm-30.79,41.6367H14.8032V26.3082h7.4654Zm-3.732-25.5263h-.05a3.8907,3.8907,0,1,1,.0987-7.76,3.8924,3.8924,0,1,1-.0489,7.76Zm30.65,25.5263H41.7227V36.75c0-3.0181-1.08-5.0777-3.7818-5.0777a4.0881,4.0881,0,0,0-3.8305,2.731,5.1085,5.1085,0,0,0-.2452,1.8208V48.7671H26.4s.0977-20.3535,0-22.4589h7.4653v3.1792a7.4131,7.4131,0,0,1,6.7291-3.709c4.9106,0,8.5927,3.2109,8.5927,10.1108Z"/></g></svg>