<?xml version="1.0" encoding="utf-8"?>
<!-- Generator: Adobe Illustrator 25.4.1, SVG Export Plug-In . SVG Version: 6.00 Build 0)  -->
<svg version="1.1" id="レイヤー_1" xmlns="http://www.w3.org/2000/svg" xmlns:xlink="http://www.w3.org/1999/xlink" x="0px"
	 y="0px" viewBox="0 0 64 64" style="enable-background:new 0 0 64 64;" xml:space="preserve">
<style type="text/css">
	.st0{fill:#191414;}
</style>
<g>
	<g>
		<g>
			<path class="st0" d="M32.5,7c-13.8,0-25,11.2-25,25c0,13.8,11.2,25,25,25c13.8,0,25-11.2,25-25C57.5,18.2,46.3,7,32.5,7z
				 M43.9,43c-0.4,0.7-1.4,1-2.1,0.5c-5.9-3.6-13.2-4.4-21.9-2.4C19,41.3,18.2,40.8,18,40c-0.2-0.8,0.3-1.7,1.2-1.9
				c9.5-2.2,17.7-1.2,24.2,2.8C44.2,41.4,44.4,42.3,43.9,43z M47,36.2c-0.6,0.9-1.8,1.2-2.7,0.6c-6.7-4.1-16.9-5.3-24.9-2.9
				c-1,0.3-2.1-0.3-2.4-1.3c-0.3-1,0.3-2.1,1.3-2.4c9.1-2.8,20.3-1.4,28,3.3C47.3,34.1,47.6,35.3,47,36.2z M47.3,29.2
				c-8-4.8-21.3-5.2-29-2.9c-1.2,0.4-2.5-0.3-2.9-1.6c-0.4-1.2,0.3-2.5,1.6-2.9c8.8-2.7,23.5-2.2,32.7,3.3c1.1,0.7,1.5,2.1,0.8,3.2
				C49.8,29.5,48.4,29.8,47.3,29.2z"/>
		</g>
	</g>
</g>
</svg>
