<svg xmlns="http://www.w3.org/2000/svg" width="64" height="64" viewBox="0 0 64 64"><g id="object"><path d="M20.9044,55.9439l-16.34-16.45c-1.9872-1.9873-1.9872-6.2931,0-8.17L27.97,7.8076c1.8768-1.8768,6.0721-1.8768,7.9491,0L59.4354,31.3238c1.9872,1.9872,1.9872,6.2931,0,8.17l-16.34,16.45A5.9491,5.9491,0,0,1,39.0106,57.6H24.7686A5.6226,5.6226,0,0,1,20.9044,55.9439ZM35.809,49.5405a1.0074,1.0074,0,0,0,0-1.3248L32.6072,45.014a1.0072,1.0072,0,0,0-1.3248,0l-3.2018,3.2017a1.0076,1.0076,0,0,0,0,1.3248L30.62,51.9694h2.65l2.5393-2.4289Zm0-13.58a.8283.8283,0,0,0,0-.9936l-3.4226-3.4225a.8278.8278,0,0,0-.9935,0L21.4565,41.481a1.1609,1.1609,0,0,0,0,1.4353l2.3185,2.3185h2.65l9.3843-9.274Zm0-13.4694c.2207-.2207.3312-.8832,0-1.104l-3.3122-3.3121a1.1915,1.1915,0,0,0-1.2144,0l-16.671,16.671a1.0157,1.0157,0,0,0-.11,1.104l2.65,2.54H19.69L35.809,22.4914Z"/></g></svg>