<svg xmlns="http://www.w3.org/2000/svg" width="64" height="64" viewBox="0 0 64 64"><g id="object"><path d="M34.1421,7.3916V18.7725H45.521V27.56H34.1421V40.1787c0,2.8555-.0362,4.502.2657,5.3106a4.5349,4.5349,0,0,0,1.875,2.123,7.1077,7.1077,0,0,0,3.7343.98,13.4434,13.4434,0,0,0,7.4355-2.4277v7.76a29.1172,29.1172,0,0,1-5.7118,2.084,24.3916,24.3916,0,0,1-5.53.6,15.1033,15.1033,0,0,1-5.3055-.85,12.9662,12.9662,0,0,1-4.4229-2.43,8.7738,8.7738,0,0,1-2.54-3.3554,14.5317,14.5317,0,0,1-.709-5.1543V27.56H16.5474V20.5889a17.427,17.427,0,0,0,5.55-2.6992,13.4748,13.4748,0,0,0,3.32-4.2266,19.0006,19.0006,0,0,0,1.7255-6.2715Z"/></g></svg>