<svg id="レイヤー_1" data-name="レイヤー 1" xmlns="http://www.w3.org/2000/svg" width="64" height="64" viewBox="0 0 64 64">
  <g>
    <path d="M32,4.09a28.62,28.62,0,0,0-9,55.77c1.43.27,2-.62,2-1.38s0-2.93,0-5.32c-8,1.73-9.64-3.38-9.64-3.38-1.3-3.31-3.18-4.19-3.18-4.19-2.59-1.77.2-1.74.2-1.74a6,6,0,0,1,4.38,2.95c2.56,4.38,6.7,3.11,8.33,2.38a6.13,6.13,0,0,1,1.82-3.83c-6.36-.72-13-3.17-13-14.14a11.08,11.08,0,0,1,3-7.68A10.23,10.23,0,0,1,17,16s2.4-.77,7.87,2.93a27.22,27.22,0,0,1,14.33,0C44.63,15.19,47,16,47,16a10.23,10.23,0,0,1,.28,7.57,11,11,0,0,1,2.95,7.68c0,11-6.7,13.41-13.07,14.12,1,.89,1.94,2.63,1.94,5.3,0,3.83,0,6.91,0,7.85,0,.77.51,1.66,2,1.38A28.62,28.62,0,0,0,32,4.09" style="fill: #161614"/>
    <path d="M14.1,44.85c-.06.15-.29.19-.49.09s-.32-.29-.26-.43a.38.38,0,0,1,.5-.09c.21.1.32.29.25.43m1.41,1.26c-.14.13-.4.07-.59-.13s-.22-.47-.08-.6.4-.06.59.14.22.46.08.59m1,1.61c-.17.12-.46,0-.63-.25s-.18-.56,0-.68.46,0,.64.24a.51.51,0,0,1,0,.69m1.64,1.86c-.16.17-.49.13-.74-.11s-.32-.56-.16-.73.49-.13.74.11.33.56.16.73m2.11.63c-.07.22-.39.32-.72.23s-.53-.36-.47-.59.39-.33.72-.23.54.36.47.59m2.4.26c0,.24-.27.44-.61.44s-.62-.18-.62-.42.27-.43.61-.43.62.18.62.41M25,50.38c0,.23-.2.47-.53.53s-.64-.08-.69-.31.2-.47.54-.53.64.08.68.31" style="fill: #161614"/>
  </g>
</svg>
