<svg xmlns="http://www.w3.org/2000/svg" width="64" height="64" viewBox="0 0 64 64"><g id="object"><path d="M46.5067,6.4H17.4933A11.0934,11.0934,0,0,0,6.4,17.4933V46.5067A11.0934,11.0934,0,0,0,17.4933,57.6H46.5067A11.0934,11.0934,0,0,0,57.6,46.5067V17.4933A11.0934,11.0934,0,0,0,46.5067,6.4Zm.0566,32.6558c-3.9108,4.5017-12.6566,9.985-14.6466,10.8234s-1.6959-.5338-1.6146-1.005c.0475-.28.2662-1.5959.2662-1.5959a3.8327,3.8327,0,0,0-.06-1.6854c-.2092-.5192-1.0354-.7883-1.6425-.92-8.9583-1.1837-15.59-7.4466-15.59-14.925,0-8.3412,8.3634-15.1275,18.6413-15.1275s18.6416,6.7863,18.6416,15.1275c0,3.3388-1.2941,6.345-3.9958,9.3075Z"/><path d="M28.1292,25.7175H26.8217a.3633.3633,0,0,0-.3634.3625v8.1225a.363.363,0,0,0,.3634.3625h1.3075a.3629.3629,0,0,0,.3633-.3625V26.08a.3632.3632,0,0,0-.3633-.3625"/><path d="M37.1292,25.7175H35.8221a.363.363,0,0,0-.3634.3625v4.8258l-3.7225-5.0271-.0283-.0366-.0021-.0025-.0216-.0221-.0071-.0063-.0192-.0162-.01-.0075-.0187-.0129-.0109-.0063-.02-.0108-.0113-.0058-.0212-.0088-.0117-.0041-.0212-.0071-.013-.0034L31.5,25.7238l-.0154-.0021-.0188-.0021-.0191-.0013-.0125-.0008H30.1267a.3628.3628,0,0,0-.3629.3625v8.1225a.3626.3626,0,0,0,.3629.3625h1.3075a.3627.3627,0,0,0,.3633-.3625V29.3783l3.7271,5.0338.0921.0892.0037.0029.0225.0137.01.0054.0175.0088.0175.0071.0108.0041.0251.008.005.0012.0933.0125h1.3071a.3627.3627,0,0,0,.3633-.3625V26.08a.3629.3629,0,0,0-.3633-.3625"/><path d="M24.9775,32.5312H21.4246V26.08a.3629.3629,0,0,0-.3629-.3629h-1.308a.3629.3629,0,0,0-.3629.3629v8.1221a.3608.3608,0,0,0,.1013.2508l.005.0054.0054.005a.3593.3593,0,0,0,.2508.1013h5.2242a.3626.3626,0,0,0,.3625-.3629V32.8942a.3626.3626,0,0,0-.3625-.363"/><path d="M44.35,27.7517a.363.363,0,0,0,.3625-.3634V26.0808a.3632.3632,0,0,0-.3625-.3633H39.1262a.362.362,0,0,0-.252.1025l-.0042.0037-.0058.0067a.3606.3606,0,0,0-.1.25v8.1221a.3607.3607,0,0,0,.1012.2508l.005.0054.0054.005a.3608.3608,0,0,0,.2508.1013H44.35a.3628.3628,0,0,0,.3625-.3629V32.8942a.3629.3629,0,0,0-.3625-.363H40.7975V31.1583H44.35a.3629.3629,0,0,0,.3625-.3633V29.4875a.3632.3632,0,0,0-.3625-.3633H40.7975V27.7517Z"/></g></svg>