<svg xmlns="http://www.w3.org/2000/svg" width="64" height="64" viewBox="0 0 64 64"><g id="object"><path d="M56.6315,16.721a20.14,20.14,0,0,1-5.8051,1.5913,10.1294,10.1294,0,0,0,4.4443-5.5918,20.2314,20.2314,0,0,1-6.418,2.4536,10.1159,10.1159,0,0,0-17.222,9.2177A28.69,28.69,0,0,1,10.7982,13.8323,10.1186,10.1186,0,0,0,13.9261,27.326a10.0706,10.0706,0,0,1-4.5777-1.2647c-.0009.042-.0009.0845-.0009.128a10.1141,10.1141,0,0,0,8.1079,9.91,10.13,10.13,0,0,1-4.565.1729,10.1182,10.1182,0,0,0,9.441,7.019A20.2765,20.2765,0,0,1,9.7791,47.618a20.679,20.679,0,0,1-2.4106-.1412,28.6053,28.6053,0,0,0,15.4931,4.541c18.5907,0,28.7558-15.4008,28.7558-28.7568,0-.4375-.0088-.8745-.0283-1.3076A20.5184,20.5184,0,0,0,56.6315,16.721Z"/></g></svg>