<svg xmlns="http://www.w3.org/2000/svg" width="64" height="64" viewBox="0 0 64 64"><defs><style>.cls-1{fill-rule:evenodd;}</style></defs><g id="object"><path id="Shape" class="cls-1" d="M26.659,23.7472V19.8314a3.856,3.856,0,0,1,.1468-1.3177,2.6,2.6,0,0,1,4.9187,0,3.8462,3.8462,0,0,1,.1472,1.3177V25.87a4.98,4.98,0,0,1-.0736,1.0614,2.6781,2.6781,0,0,1-1.9455,1.94,5.05,5.05,0,0,1-1.0647.073H22.7313a3.8837,3.8837,0,0,1-1.3216-.1463,2.5872,2.5872,0,0,1,0-4.904,3.8832,3.8832,0,0,1,1.3216-.1464ZM48.2431,51.1225H15.7569V22.5945a1.2685,1.2685,0,0,1,.3855-.9333l8.4243-8.3993a1.2772,1.2772,0,0,1,.9361-.384h22.74Zm3.6892-44.686A6.9081,6.9081,0,0,0,51.1247,6.4H24.64c-.2933,0-.5869.0183-.789.0365A5.1234,5.1234,0,0,0,20.694,7.9736L10.8379,17.8a5.0972,5.0972,0,0,0-1.5414,3.1475c-.0186.2011-.0369.4939-.0369.7866V53.9951a6.7479,6.7479,0,0,0,.0369.8052,3.2646,3.2646,0,0,0,2.7712,2.7629,6.8223,6.8223,0,0,0,.8076.0368H51.1247a6.8182,6.8182,0,0,0,.8076-.0368A3.2653,3.2653,0,0,0,54.7038,54.8a6.9054,6.9054,0,0,0,.0366-.8052v-43.99A6.9054,6.9054,0,0,0,54.7038,9.2,3.2656,3.2656,0,0,0,51.9323,6.4365Z"/></g></svg>