<svg xmlns="http://www.w3.org/2000/svg" width="64" height="64" viewBox="0 0 64 64"><g id="object"><path d="M33.1669,7.1084c-13.5858,0-20.4364,9.74-20.4364,17.8633,0,4.918,1.8618,9.293,5.8555,10.9229a.9841.9841,0,0,0,1.4316-.7149c.1318-.501.4448-1.7666.5845-2.2959a1.387,1.387,0,0,0-.4117-1.5927,8.2449,8.2449,0,0,1-1.8876-5.6084c0-7.2256,5.4072-13.6944,14.0785-13.6944,7.6792,0,11.8985,4.6924,11.8985,10.957,0,8.2452-3.65,15.2051-9.066,15.2051a4.4261,4.4261,0,0,1-4.5131-5.5088c.86-3.622,2.5243-7.5312,2.5243-10.1474,0-2.34-1.2562-4.292-3.8563-4.292-3.0576,0-5.5147,3.164-5.5147,7.4014a11.0028,11.0028,0,0,0,.9121,4.5253S21.6367,43.3877,21.0879,45.711c-1.0923,4.625-.1641,10.2929-.0854,10.8652a.38.38,0,0,0,.68.165c.2813-.3681,3.9244-4.8652,5.1622-9.3584.351-1.2724,2.0112-7.86,2.0112-7.86.9936,1.8965,3.8973,3.5635,6.9853,3.5635,9.1923,0,15.4287-8.3789,15.4287-19.5957C51.27,15.0078,44.0854,7.1084,33.1669,7.1084Z"/></g></svg>