<svg xmlns="http://www.w3.org/2000/svg" width="64" height="64" viewBox="0 0 64 64"><g id="object"><path d="M32.021,6.3789A25.608,25.608,0,0,0,22.687,55.83a24.6479,24.6479,0,0,1,.0843-7.3534c.4635-2.0016,2.9919-12.7262,2.9919-12.7262a9.3258,9.3258,0,0,1-.7585-3.7926c0-3.5609,2.0649-6.2157,4.6354-6.2157,2.1913,0,3.2448,1.6435,3.2448,3.603,0,2.1913-1.3906,5.4782-2.1281,8.5333a3.7238,3.7238,0,0,0,3.7926,4.6354c4.5511,0,8.0487-4.8039,8.0487-11.7149,0-6.1313-4.4036-10.4085-10.7035-10.4085-7.29,0-11.5674,5.4571-11.5674,11.1038a9.993,9.993,0,0,0,1.8963,5.8364.7618.7618,0,0,1,.1685.7374c-.19.8007-.6321,2.55-.7163,2.9077-.1054.4635-.3793.5689-.8639.3371-3.2026-1.4959-5.2043-6.1524-5.2043-9.9239,0-8.07,5.8575-15.4864,16.9192-15.4864,8.87,0,15.7814,6.3209,15.7814,14.7911,0,8.8283-5.5625,15.9289-13.2741,15.9289-2.5916,0-5.0357-1.3485-5.8574-2.95,0,0-1.2853,4.8882-1.6014,6.0892a27.8875,27.8875,0,0,1-3.1815,6.7213A25.6229,25.6229,0,1,0,32.021,6.3789Z"/></g></svg>