<svg xmlns="http://www.w3.org/2000/svg" width="64" height="64" viewBox="0 0 64 64"><g id="object"><path d="M43.747,44.083h-9.32c-6.6308,0-7.6885-2.9336-7.6885-5.6543,0-1.291.0811-3.42.16-6.0274H42.4716c2.3291,0,6.7764-.955,6.7764-5.2187,0-4.26-2.0527-7.0527-4.8027-7.0527H27.0918c-.0176-6.1465-.418-12.2715-6.4219-12.2715-2.4834,0-4.4981,1.02-5.3477,3.5527-1.1152,3.3281-.82,7.2246-.8056,10.69.0039.6582.0068,1.32.0087,1.98.0079,2.27.0538,4.5528.0645,6.834q.0089,3.6827.0088,7.3633c0,13.7461,12.4932,17.6406,14.89,17.6406s11.7842.2227,13.4786.2227c1.6962,0,6.5625-.4492,6.5625-5.3711S46.0761,44.083,43.747,44.083Z"/></g></svg>