<svg xmlns="http://www.w3.org/2000/svg" width="64" height="64" viewBox="0 0 64 64"><g id="object"><path d="M28.4058,29.6755a1.89,1.89,0,0,0,.87-1.7817,2.0392,2.0392,0,0,0-.809-1.8432,6.3923,6.3923,0,0,0-3.1744-.5325H23.9309v4.6694H25.19A6.8476,6.8476,0,0,0,28.4058,29.6755Z"/><path d="M29.4093,34.9389a6.0228,6.0228,0,0,0-3.1642-.5837H23.9309V39.424H26.153a6.526,6.526,0,0,0,3.1846-.5632l-.01.01a1.91,1.91,0,0,0,.942-1.8841A2.3117,2.3117,0,0,0,29.4093,34.9389Z"/><path d="M47.1654,6.4H16.8346A10.4346,10.4346,0,0,0,6.4,16.8346V47.1654A10.4346,10.4346,0,0,0,16.8346,57.6H47.1654A10.4346,10.4346,0,0,0,57.6,47.1654V16.8346A10.4346,10.4346,0,0,0,47.1654,6.4ZM40.4582,20.3674h5.12V35.883h-5.12ZM35.4918,40.2637a5.376,5.376,0,0,1-2.2425,2.1913,9.3072,9.3072,0,0,1-2.9287.9114,42.7615,42.7615,0,0,1-5.7139.2662H18.0326V20.3674h6.38a39.5,39.5,0,0,1,5.4988.2457,8.4346,8.4346,0,0,1,2.6829.8807A4.9968,4.9968,0,0,1,34.56,23.3984a5.6319,5.6319,0,0,1,.6758,2.775,4.636,4.636,0,0,1-1.0035,3.1437,6.2564,6.2564,0,0,1-3.2153,1.7715,5.5084,5.5084,0,0,1,3.8707,1.7408A5.96,5.96,0,0,1,36.28,36.9766,6.6711,6.6711,0,0,1,35.4918,40.2637Zm10.4756.43a2.9492,2.9492,0,1,1-2.9492-2.9492,2.9492,2.9492,0,0,1,2.9492,2.9492Z"/></g></svg>