<?xml version="1.0" encoding="utf-8"?>
<!-- Generator: Adobe Illustrator 25.2.3, SVG Export Plug-In . SVG Version: 6.00 Build 0)  -->
<svg version="1.1" id="レイヤー_1" xmlns="http://www.w3.org/2000/svg" xmlns:xlink="http://www.w3.org/1999/xlink" x="0px"
	 y="0px" viewBox="0 0 64 64" style="enable-background:new 0 0 64 64;" xml:space="preserve">
<path d="M56.9,19.5c-0.6-2.2-2.4-4-4.6-4.6c-4-1.1-20.3-1.1-20.3-1.1s-16.2,0-20.3,1.1c-2.2,0.6-4,2.4-4.6,4.6C6,23.6,6,32,6,32
	s0,8.4,1.1,12.5c0.6,2.2,2.4,4,4.6,4.6c4,1.1,20.3,1.1,20.3,1.1s16.2,0,20.3-1.1c2.2-0.6,4-2.4,4.6-4.6C58,40.4,58,32,58,32
	S58,23.6,56.9,19.5z M26.8,39.8V24.2L40.3,32L26.8,39.8z"/>
</svg>
