<?xml version="1.0" encoding="utf-8"?>
<!-- Generator: Adobe Illustrator 26.3.1, SVG Export Plug-In . SVG Version: 6.00 Build 0)  -->
<svg version="1.1" id="uuid-547a01fe-c142-4b29-87cf-5ff2aea8ecef"
	 xmlns="http://www.w3.org/2000/svg" xmlns:xlink="http://www.w3.org/1999/xlink" x="0px" y="0px" viewBox="0 0 48 48"
	 style="enable-background:new 0 0 48 48;" xml:space="preserve">
<style type="text/css">
	.st0{fill:#FFFFFF;}
</style>
<path class="st0" d="M31.5,28.5h-1.6L29.4,28c2-2.3,3.1-5.2,3.1-8.5c0-7.2-5.8-13-13-13s-13,5.8-13,13s5.8,13,13,13
	c3.2,0,6.2-1.2,8.5-3.1l0.5,0.6v1.6l10,10l3-3C41.5,38.5,31.5,28.5,31.5,28.5z M19.5,28.5c-5,0-9-4-9-9s4-9,9-9s9,4,9,9
	S24.5,28.5,19.5,28.5z"/>
</svg>
