<?xml version="1.0" encoding="UTF-8"?>
<svg id="uuid-f8072211-f93b-4408-84d3-56d5d59681fc" data-name="logo" xmlns="http://www.w3.org/2000/svg" width="200" height="46" viewBox="0 0 200 46">
  <path d="M28.9837,22.6423l.0003.0004L13.8989,2.5045l-.0002-.0002c-.3217-.4281-.8255-.6805-1.3609-.6819H1.6998c-.9387.0008-1.699.7612-1.6998,1.6998h0c0,.8432.0208,40.4205.0208,40.4206H.0208c.0008.9386.7613,1.6989,1.6997,1.6998h11.3071c.5459-.0009,1.0581-.2629,1.3782-.7046l14.5944-20.2806-.0007.0008c.2166-.2972.3248-.6477.3247-.9973,0-.3585-.1138-.7174-.3405-1.0185ZM12.0745,42.2426H3.4919l-.0712-.0712V5.2934l.0712-.0711h8.1136l.1291.0648,13.7101,18.3001.0018.1863-13.2404,18.4017-.1316.0674Z"/>
  <path d="M109.0971,42.2467h-24.4449l-.0714-.0714v-17.5251h15.5488l.2449-.2449.0563-.0564v-2.7976l-.2448-.2448-.0564-.0564h-15.5488V5.2937l.0714-.0714h22.8538l.2448-.2448.0564-.0564v-2.7976l-.2448-.2448-.0564-.0564h-24.6251c-.939,0-1.6998.761-1.7,1.6998v40.4243c.0002.939.7611,1.6998,1.7,1.7h26.2162l.2449-.2448.0564-.0564v-2.798l-.245-.2445-.0564-.0563Z"/>
  <polygon points="180.9721 44.5115 180.9719 44.5108 180.9718 44.5106 180.9721 44.5115"/>
  <path d="M200,.6876l-.1021-.217-.0426-.0905-.1367-.0239-.0164-.0029h-2.9849l-.227.1594-.0497.0349-13.8698,38.331L168.6764.5475l-.2269-.1592-.0497-.0349h-3.0465l-.1695.1696-.0707.0708.024.137.0029.0164,15.8319,43.7636c.2481.6956.9021,1.1302,1.601,1.13.1892,0,.3818-.0319.5697-.0988.4829-.1719.8624-.5524,1.0329-1.0357l-.0005.0013L200,.6876Z"/>
</svg>