<svg xmlns="http://www.w3.org/2000/svg" viewBox="0 0 200 26"><path d="M0 .74C0 .518.148.369.369.369h11.766c.222 0 .37.15.37.37v4.515c0 .221-.148.369-.37.369h-6.03q-.224 0-.223.223v4.439q0 .223.223.223h5.179c.222 0 .37.147.37.369v4.514c0 .223-.148.37-.37.37h-5.18q-.222.001-.222.224v9.173c0 .223-.148.37-.369.37H.369c-.221 0-.369-.147-.369-.37zM19.47 21.275c-.407-1.26-.592-2.444-.592-8.326s.185-7.067.592-8.325C20.47 1.553 22.91 0 26.462 0s6.031 1.553 7.03 4.624c.407 1.258.592 2.442.592 8.325s-.185 7.066-.592 8.326c-.999 3.07-3.478 4.624-7.03 4.624s-5.993-1.555-6.992-4.624m8.4-1.555c.147-.482.183-.925.183-6.77s-.036-6.29-.184-6.771c-.185-.556-.667-.925-1.407-.925-.702 0-1.184.369-1.369.925-.148.48-.184.925-.184 6.77s.036 6.29.184 6.771c.185.554.667.925 1.37.925.739 0 1.22-.37 1.406-.925M51.004 25.528c-.26 0-.408-.111-.482-.331l-2.552-9.065h-.85q-.224-.002-.224.223v8.803c0 .223-.147.37-.369.37h-5.144c-.221 0-.369-.147-.369-.37V.74c0-.222.148-.371.37-.371h7.067c4.513 0 7.548 2.294 7.548 7.955 0 3.071-1 5.106-2.627 6.365l3.293 10.469c.073.187 0 .37-.186.37zm-.889-17.204c0-2.293-.666-2.996-2.145-2.996h-.85q-.224 0-.224.221v5.513q0 .221.223.221h.851c1.48 0 2.145-.701 2.145-2.96M62.965.74c0-.222.148-.371.37-.371h4.92c.297 0 .482.15.556.37l3.44 12.21h.148L75.729.74c.074-.22.26-.37.555-.37h4.885c.221 0 .369.15.369.37v24.419c0 .223-.148.37-.37.37h-4.44c-.221 0-.37-.147-.37-.37V12.172h-.184l-2.22 8.51c-.074.258-.222.37-.445.37h-2.515c-.223 0-.37-.112-.445-.37l-2.22-8.51h-.184v12.986c0 .223-.149.37-.37.37h-4.44c-.222 0-.37-.147-.37-.37zM93.133.74c.074-.222.185-.371.443-.371h5.736c.259 0 .406.15.442.37l5.403 24.419c.074.259-.075.37-.296.37h-5.107c-.259 0-.406-.147-.442-.37l-.666-3.959h-4.477l-.703 3.959c-.038.223-.148.37-.407.37h-5.144c-.221 0-.333-.147-.295-.37zm4.736 16.058-1.37-8.178h-.073l-1.481 8.178zM115.418 25.528c-.221 0-.369-.147-.369-.37V5.846q0-.223-.223-.223h-4.144c-.22 0-.369-.148-.369-.37V.74c0-.222.148-.371.37-.371h14.615c.221 0 .369.15.369.37v4.515c0 .221-.148.369-.37.369h-4.143q-.223 0-.223.223v19.312c0 .223-.147.37-.369.37zM143.626.74c0-.222.148-.371.37-.371h5.143c.223 0 .37.15.37.37v24.419c0 .223-.147.37-.37.37h-5.142c-.223 0-.37-.147-.37-.37zM164.982 25.528c-.223 0-.37-.147-.37-.37V13.65c0-1.146-.407-1.664-1.184-1.664-.814 0-1.22.518-1.22 1.664v11.507c0 .223-.151.37-.37.37h-4.848c-.223 0-.37-.147-.37-.37V7.88c0-.223.147-.37.37-.37h4.808c.223 0 .37.147.37.37V9.25h.04c.626-1.222 1.85-2.11 3.66-2.11 3.073 0 4.329 1.74 4.329 5.55v12.468c0 .223-.148.37-.368.37zM175.758 21.865c-.37-1.109-.482-2.217-.482-5.326 0-3.147.111-4.255.482-5.365.886-2.701 2.994-4.034 6.103-4.034 3.628 0 6.143 1.999 6.402 5.439 0 .259-.075.37-.298.444l-4.29.74c-.26.037-.446-.036-.446-.333-.072-1.11-.515-1.555-1.184-1.555-.554 0-.885.26-1.033.742-.112.295-.15.665-.15 3.922 0 3.217.038 3.588.15 3.883.148.482.479.741 1.033.741.669 0 1.112-.443 1.184-1.554 0-.296.187-.37.446-.332l4.29.738c.223.076.298.187.298.446-.259 3.44-2.774 5.438-6.402 5.438-3.108 0-5.217-1.332-6.103-4.034M194.785 20.163c0-.22.148-.368.368-.368h4.476c.223 0 .371.148.371.368v4.995c0 .223-.148.37-.37.37h-4.477c-.22 0-.368-.147-.368-.37z"/></svg>