<?xml version="1.0" encoding="UTF-8"?>
<svg id="uuid-2b97081c-48fc-483b-b5c0-126a27fc9fd9" data-name="レイヤー_1" xmlns="http://www.w3.org/2000/svg" width="400" height="62" viewBox="0 0 400 62">
  <path d="M109.7246,53.046h38.9014c.1504,0,.2723.1219.2723.2723v2.1007c0,.1504-.1219.2723-.2723.2723h-40.6519c-.7949,0-1.4393-.6444-1.4393-1.4393v-29.7977c0-.1504.1219-.2723.2723-.2723h2.4119c.1504,0,.2723.1219.2723.2723v28.3583c0,.1289.1045.2334.2334.2334ZM147.4608,13.4595h-40.6533c-.1504,0-.2723.1219-.2723.2723v2.1007c0,.1504.1219.2723.2723.2723h38.9027c.1289,0,.2334.1045.2334.2334v28.3958c0,.1504.1219.2723.2723.2723h2.4119c.1504,0,.2723-.1219.2723-.2723V14.8988c0-.7949-.6444-1.4393-1.4393-1.4393ZM338.1055,31.1645v2.3341c0,.1504.1219.2723.2723.2723h61.3499c.1504,0,.2723-.1219.2723-.2723v-2.3341c0-.1504-.1219-.2723-.2723-.2723h-61.3499c-.1504,0-.2723.1219-.2723.2723ZM26.4376,13.4955c-1.2363,0-2.2385,1.0022-2.2385,2.2385s1.0022,2.2385,2.2385,2.2385,2.2385-1.0022,2.2385-2.2385-1.0022-2.2385-2.2385-2.2385ZM37.4174,13.4955c-1.2363,0-2.2385,1.0022-2.2385,2.2385s1.0022,2.2385,2.2385,2.2385,2.2385-1.0022,2.2385-2.2385-1.0022-2.2385-2.2385-2.2385ZM242.4407.6788c-1.2361,0-2.2381,1.002-2.2381,2.2381s1.002,2.2381,2.2381,2.2381,2.2381-1.002,2.2381-2.2381-1.002-2.2381-2.2381-2.2381ZM30.4266,38.4523L2.996,26.5851c-.0712-.0308-.1173-.1009-.1173-.1785V2.8778c0-.1504-.1219-.2723-.2723-.2723H.2723c-.1504,0-.2723.1219-.2723-.389v58.1709c0,.8118.122.9337.2724.9337h2.3339c.1504,0,.2724-.122.2724-.2724v-31.2615c0-.056.0573-.0936.1087-.0714l27.3934,11.8486c.0771.0333.163-.0232.163-.1071v-2.8265c0-.0776-.0461-.1477-.1173-.1785ZM254.3541,16.0754c-.2131-.5468-.7518-.9127-1.3388-.9127h-27.5497c-.1504,0-.2723.1219-.2723.2723v2.3341c0,.1504.1219.2723.2723.2723h23.6036c.1064,0,.1573.1307.079.2026l-31.0096,28.2604c-.0401.0368-.0629.0888-.0629.1432v3.5885c0,.1017.121.1547.1958.0858l35.7249-32.668c.4369-.4061.5776-1.0266.3578-1.5787ZM242.9787,37.0274c-.4369-.189-.9542-.1447-1.3616.1179-.4061.268-.6486.717-.6486,1.2035v22.7c0,.1504.1219.2723.2723.2723h2.3341c.1504,0,.2723-.1219.2723-.2723v-20.3311c0-.084.086-.1405.1631-.1071l22.6404,9.8042c.0771.0334.1631-.0231.1631-.1071v-2.8319c0-.0775-.0461-.1477-.1172-.1785l-23.7177-10.2699Z"/>
</svg>