<?xml version="1.0" encoding="UTF-8"?>
<svg id="uuid-e704fe5a-fde3-4402-8302-125a86cc8d38" data-name="レイヤー_1" xmlns="http://www.w3.org/2000/svg" width="400" height="178" viewBox="0 0 400 178">
  <path d="M233.5461,172.0359l-3.2721-4.3681c-.0614-.0821-.1593-.1312-.2619-.1312h-2.3507c-.1802,0-.327.1467-.327.327,0,.1828.0045,8.7674.0045,8.7674,0,.1803.1467.327.327.327h2.4525c.1046,0,.2038-.0507.2652-.1356l3.1656-4.3989c.0844-.1166.0831-.2722-.0031-.3875ZM232.8541,172.2694l-2.8858,4.0108c-.0108.0149-.028.0238-.0465.0238h-1.8717c-.0316,0-.0572-.0256-.0572-.0572v-7.999c0-.0316.0256-.0572.0572-.0572h1.7696c.018,0,.035.0085.0458.0229l2.9879,3.9882c.015.02.0153.0474.0007.0677ZM250.9802,176.3456v.5723c0,.0225-.0183.0408-.0409.0408h-5.6691c-.1806,0-.327-.1464-.327-.327v-8.7682c0-.1806.1464-.327.327-.327h5.324c.0226,0,.0409.0183.0409.0408v.5722c0,.0225-.0183.0408-.0409.0408h-4.9398c-.0316,0-.0572.0257-.0572.0573v3.5026h3.3971c.0225,0,.0408.0183.0408.0408v.5722c0,.0226-.0183.0409-.0408.0409h-3.3971v3.8432c0,.0316.0256.0572.0572.0572h5.285c.0226,0,.0409.0183.0409.0408ZM263.8627,176.3117h5.2829c.0226,0,.0409.0183.0409.0409v.5722c0,.0226-.0183.0409-.0409.0409h-5.6671c-.1806,0-.327-.1464-.327-.327v-9.0616c0-.0226.0183-.0409.0409-.0409h.5722c.0226,0,.0409.0183.0409.0409v8.6773c0,.0316.0256.0572.0572.0572ZM305.2131,167.5363h.5722c.0226,0,.0409.0183.0409.0409v6.7157c0,.0922-.0391.1805-.1076.2425l-3.0268,2.6569c-.0586.0534-.1366.0834-.218.0834s-.1594-.03-.2194-.0846l-3.0237-2.6545c-.0698-.0631-.109-.1514-.109-.2436v-6.7157c0-.0226.0183-.0409.0409-.0409h.5722c.0226,0,.0409.0183.0409.0409v6.5323c0,.0236.0102.046.0279.0615l2.6325,2.306c.0216.0189.0538.0189.0754,0l2.6328-2.306c.0177-.0155.0279-.0379.0279-.0615v-6.5323c0-.0226.0183-.0409.0409-.0409ZM324.3741,167.5363h.5722c.0226,0,.0409.0183.0409.0409v9.2898c0,.1477-.0997.2777-.2428.3159-.0276.0073-.0558.0111-.0842.0111h-.0003c-.1163,0-.2247-.0628-.283-.1638l-5.3947-8.1629c-.0133-.0205-.0451-.0111-.0451.0133v8.0443c0,.0226-.0183.0409-.0409.0409h-.5722c-.0226,0-.0409-.0183-.0409-.0409v-9.2899c0-.1477.0997-.2777.2428-.3159.1383-.0379.2949.0266.3675.1527l5.3947,8.1628c.0133.0205.0451.0111.0451-.0133v-8.044c0-.0226.0183-.0409.0409-.0409ZM287.4312,176.9247c.0058.016-.0061.0329-.0231.0329h-.6306c-.0172,0-.0326-.0108-.0384-.027l-3.0202-8.3465c-.0078-.0216-.0383-.0216-.0461,0l-3.0255,8.3466c-.0059.0162-.0212.0269-.0384.0269h-.6303c-.017,0-.0288-.0169-.0231-.0329l3.4328-9.4894c.0453-.1296.1693-.2173.3078-.2173.1383,0,.2622.0877.3084.2181l3.4266,9.4885ZM343.9644,176.9247c.0058.016-.0061.0329-.0231.0329h-.6306c-.0172,0-.0326-.0108-.0384-.027l-3.0202-8.3465c-.0078-.0216-.0383-.0216-.0461,0l-3.0255,8.3466c-.0059.0162-.0212.0269-.0384.0269h-.6303c-.017,0-.0288-.0169-.0231-.0329l3.4328-9.4894c.0453-.1296.1693-.2173.3078-.2173.1383,0,.2622.0877.3084.2181l3.4266,9.4885ZM360.1968,167.5363h.6799c.0186,0,.0305.02.0215.0363l-5.1349,9.3646-.0358.0212h-.6802l-.0215-.0363,2.0434-3.7264v-.055s-3.0457-5.5681-3.0457-5.5681c-.0089-.0163.0029-.0363.0215-.0363h.6796c.0149,0,.0287.0082.0359.0213l2.6755,4.8907h.043s2.6819-4.8908,2.6819-4.8908c.0072-.0131.0209-.0212.0358-.0212Z"/>
  <path d="M344.6201,129.5879c-.0847,0-.1708-.0242-.2464-.0756-.2011-.136-.2524-.4081-.1164-.6092l18.27-26.9802-34.9528-55.9377-27.8646,60.3714c-.0983.2116-.3129.3688-.5487.3295-.2358-.0121-.4369-.1648-.5109-.3885L265.0218,2.5141l-24.3817,123.6558c-.0499.254-.257.4384-.5155.458-.26.0212-.4943-.1315-.582-.3749l-23.6289-66.855-14.3321,42.4204c-.065.1995-.2404.3477-.4565.3809l-70.9032,10.6361-.1119-.0453-64.8369-26.4784L.8059,115.614c-.2071.0952-.4467.0544-.6145-.0922-.1678-.1497-.2328-.384-.1648-.5986l16.9987-54.4774c.0484-.1602.1678-.2918.3235-.3568.1602-.068.3341-.0574.4852.0212l47.3892,25.204,54.5455-46.3356c.1617-.1345.3825-.1738.5759-.0983.1935.0741.3326.2494.3598.4565l9.9967,72.5388,70.1096-10.5167,14.5558-43.084c.0756-.2298.2918-.387.5366-.3885h.0045c.2419,0,.458.1527.5366.3825l23.5518,66.6312L264.3899,1.1839c.0499-.2524.2645-.4429.523-.4595.2494.003.4958.1451.579.3915l33.7495,104.1599,27.7739-60.1764c.0892-.1905.2751-.3174.4852-.3311.2343-.0121.4081.0907.5185.2721l35.0465,56.0874,36.1334-53.3588c.136-.2011.4097-.2524.6092-.1164s.2524.4081.1164.6092l-54.9415,81.1342c-.0847.1255-.2222.192-.3628.192ZM17.7524,61.0595L1.0682,114.5317l63.2073-28.7307-46.5231-24.7414ZM66.1121,85.7102l63.6805,26.0022-9.8818-71.7029-53.7987,45.7007Z"/>
</svg>