<?xml version="1.0" encoding="utf-8"?>
<!-- Generator: Adobe Illustrator 20.0.0, SVG Export Plug-In . SVG Version: 6.00 Build 0)  -->
<svg version="1.1" id="レイヤー_1" xmlns="http://www.w3.org/2000/svg" xmlns:xlink="http://www.w3.org/1999/xlink" x="0px"
	 y="0px" viewBox="0 0 600 46" style="enable-background:new 0 0 600 46;" xml:space="preserve">
<style type="text/css">
	.st0{fill:#231815;}
</style>
<path class="st0" d="M27.9035969,22.0523663L13.2050409,2.4304032c-0.2758036-0.3688054-0.7154446-0.5895826-1.1765928-0.5895826
	H1.4688433C0.6591451,1.8408207,0,2.499989,0,3.3097162c0,0.8211136,0.0202425,39.3843651,0.0202425,39.3843651
	c0,0.8097267,0.6591451,1.468895,1.4688433,1.468895h11.0169573c0.470005,0,0.9153385-0.2277374,1.1911421-0.6091919
	l14.2203274-19.7605038C28.2964268,23.2694874,28.2907333,22.5704651,27.9035969,22.0523663z M24.7949371,23.101347
	l-12.963459,18.0169086c-0.0483046,0.0671349-0.1259575,0.1069298-0.2086611,0.1069298H3.2149925
	c-0.1419721,0-0.2570634-0.115097-0.2570634-0.2570724V5.0356841c0-0.1419773,0.1150913-0.2570724,0.2570634-0.2570724h7.9491568
	c0.0809574,0,0.1571856,0.0381389,0.2057276,0.102932L24.7920055,22.79706
	C24.859354,22.8869553,24.8605404,23.01017,24.7949371,23.101347z M106.2194977,41.41259v2.5705681
	c0,0.1013756-0.0821533,0.1836128-0.183609,0.1836128H80.5691833c-0.8112259,0-1.468895-0.6576653-1.468895-1.468895V23.7078781
	v-2.9377899V3.3097162c0-0.8112295,0.6576691-1.4688956,1.468895-1.4688956h23.9162827
	c0.1013718,0,0.1836166,0.0821588,0.1836166,0.183612v2.5705671c0,0.1013737-0.0822449,0.1836119-0.1836166,0.1836119H82.2950745
	c-0.1420212,0-0.2570724,0.1150537-0.2570724,0.2570724v15.7344036H97.298111c0.1013718,0,0.1836166,0.082159,0.1836166,0.1836109
	v2.5705681c0,0.1013737-0.0822449,0.1836109-0.1836166,0.1836109H82.038002v17.2640305
	c0,0.1419373,0.1150513,0.2570724,0.2570724,0.2570724h23.7408142
	C106.1373444,41.228981,106.2194977,41.3111382,106.2194977,41.41259z M164.0899506,41.2599754h23.7313385
	c0.1014099,0,0.1836243,0.0822105,0.1836243,0.1836243v2.5705452c0,0.1014137-0.0822144,0.1836243-0.1836243,0.1836243h-25.4572449
	c-0.8112183,0-1.4688416-0.65765-1.4688416-1.468895V2.0231786c0-0.1014122,0.0821991-0.1836231,0.183609-0.1836231h2.5704651
	c0.1014099,0,0.183609,0.0822109,0.183609,0.1836231V41.002903
	C163.8328857,41.1448822,163.9479828,41.2599754,164.0899506,41.2599754z M349.8412476,1.8395555h2.5704346
	c0.1014099,0,0.1836243,0.0822109,0.1836243,0.1836231v30.1678581c0,0.4143524-0.1758423,0.8109894-0.4832764,1.0893326
	l-13.5966187,11.9352493c-0.2631531,0.2397575-0.6135864,0.3745003-0.9792175,0.3745003s-0.716095-0.1347427-0.9855652-0.3801918
	L322.967926,33.2854309c-0.3137512-0.2834053-0.4895935-0.6800423-0.4895935-1.0943947V2.0231786
	c0-0.1014122,0.0822144-0.1836231,0.1836243-0.1836231h2.5704346c0.1014099,0,0.1836243,0.0822109,0.1836243,0.1836231v29.344059
	c0,0.1058311,0.0456543,0.2065182,0.1252441,0.2762527l11.8255615,10.3588219
	c0.0969543,0.0849266,0.2417908,0.0849304,0.3387451,0.0000076l11.8267822-10.3588295
	c0.0796204-0.0697327,0.1252747-0.1704254,0.1252747-0.2762642V2.0231786
	C349.6576233,1.9217664,349.7398376,1.8395555,349.8412476,1.8395555z M435.9152527,1.8395555h2.5704346
	c0.1014099,0,0.1836243,0.0822109,0.1836243,0.1836231v41.7308006c0,0.6635933-0.447876,1.2474823-1.0905762,1.4189186
	c-0.1239624,0.0328941-0.2504883,0.0499763-0.3782654,0.0499763h-0.0012817c-0.5224915,0-1.0095825-0.2821388-1.2714539-0.735714
	L411.6939087,7.8181987c-0.0596924-0.0921097-0.2026367-0.0498457-0.2026367,0.0599084v36.1360397
	c0,0.1014137-0.0822144,0.1836243-0.1836243,0.1836243h-2.5704346c-0.1014099,0-0.1836243-0.0822105-0.1836243-0.1836243V2.2827137
	c0-0.6635966,0.447876-1.2474856,1.0905762-1.41892c0.6211853-0.1701692,1.3246155,0.1195613,1.651001,0.6857375
	l24.2338257,36.668335c0.0596924,0.0921097,0.2026367,0.0498466,0.2026367-0.0599098V2.0231786
	C435.7316284,1.9217664,435.8138428,1.8395555,435.9152527,1.8395555z M269.9625854,44.0134811
	c0.0259399,0.0718117-0.0272522,0.1475945-0.1036072,0.1475945h-2.8328552c-0.0773315,0-0.1463623-0.0484352-0.1726685-0.1211395
	l-13.566925-37.4937286c-0.0350494-0.0968852-0.1720581-0.0969238-0.2071686-0.0000582l-13.5907593,37.4938812
	c-0.0263367,0.0726547-0.0953522,0.1210442-0.1726227,0.1210442h-2.8315887c-0.0763702,0-0.1295776-0.0758286-0.1035919-0.1476517
	l15.4206848-42.6274414c0.2036896-0.5819913,0.7603455-0.9761006,1.3828125-0.9761006
	c0.6211853,0,1.1778564,0.3941093,1.3853455,0.9798962L269.9625854,44.0134811z M523.9172974,44.0134811
	c0.0259399,0.0718117-0.0272827,0.1475945-0.1035767,0.1475945h-2.8328857c-0.0773315,0-0.1463623-0.0484352-0.1726685-0.1211395
	l-13.566925-37.4937286c-0.0350342-0.0968852-0.1720581-0.0969238-0.2071533-0.0000582l-13.5907593,37.4938812
	c-0.0263367,0.0726547-0.0953674,0.1210442-0.1726379,0.1210442h-2.8315735c-0.0763855,0-0.1295776-0.0758286-0.1036072-0.1476517
	l15.4206848-42.6274414c0.2037048-0.5819913,0.760376-0.9761006,1.3828125-0.9761006
	c0.6211853,0,1.1778564,0.3941093,1.3853455,0.9798962L523.9172974,44.0134811z M596.8355103,1.8394765h3.0541382
	c0.0837402,0,0.1369019,0.0897235,0.0966187,0.1631461l-23.0665283,42.0669327
	c-0.0576782,0.0341568-0.1032715,0.061161-0.1609497,0.095314h-3.0553589
	c-0.0426636-0.0720444-0.0539551-0.0910835-0.0966187-0.1631317l9.1792603-16.7395897
	c0.000061-0.0877399,0.0001221-0.1593018,0.0001221-0.2470417L569.1043701,2.0025237
	c-0.0401611-0.07342,0.0129395-0.1630472,0.0966797-0.1630472h3.0529785c0.0670776,0,0.1288452,0.0366151,0.1610718,0.095494
	l12.0186768,21.969883c0.0870361,0.0000439,0.1062012,0.0000534,0.1932373,0.0000973l12.0474854-21.9701424
	C596.7067261,1.8760202,596.7684937,1.8394765,596.8355103,1.8394765z"/>
</svg>
